<?xml version="1.0" standalone="no"?>
<!DOCTYPE svg PUBLIC "-//W3C//DTD SVG 20010904//EN"
 "http://www.w3.org/TR/2001/REC-SVG-20010904/DTD/svg10.dtd">
<svg version="1.0" xmlns="http://www.w3.org/2000/svg"
 width="300.000000pt" height="300.000000pt" viewBox="0 0 300.000000 300.000000"
 preserveAspectRatio="xMidYMid meet">
<metadata>
Created by potrace 1.10, written by Peter Selinger 2001-2011
</metadata>
<g transform="translate(0.000000,300.000000) scale(0.050000,-0.050000)"
fill="#000000" stroke="none">
<path d="M2148 5984 c5 -9 -15 -39 -44 -66 -122 -114 -177 -141 -324 -159
-198 -25 -496 -225 -449 -301 6 -10 2 -18 -10 -18 -11 0 -21 -9 -21 -21 0 -43
-96 -121 -196 -159 -57 -22 -104 -36 -104 -31 0 21 -166 -144 -199 -198 -21
-34 -53 -119 -71 -191 -33 -129 -51 -153 -211 -292 -144 -123 -177 -204 -182
-437 -4 -186 -37 -279 -136 -385 -23 -25 -41 -56 -41 -71 0 -15 -10 -37 -22
-49 -31 -31 -12 -175 41 -306 65 -161 69 -178 44 -226 -52 -104 -110 -288
-105 -334 6 -50 76 -202 101 -220 8 -5 31 -39 52 -75 21 -36 44 -65 51 -65 7
0 15 -92 18 -205 7 -280 7 -273 24 -262 9 5 16 -5 16 -22 0 -17 10 -31 21 -31
12 0 17 -7 11 -16 -5 -9 48 -70 119 -134 71 -65 129 -130 129 -145 0 -15 8
-22 18 -17 9 6 28 -31 41 -83 13 -52 33 -116 43 -143 11 -26 16 -51 11 -56
-22 -21 183 -182 313 -246 124 -61 154 -87 235 -206 51 -74 124 -157 161 -184
37 -27 79 -58 93 -70 18 -16 263 -56 359 -60 3 0 50 -40 106 -90 192 -171 281
-194 563 -145 114 19 146 19 152 0 5 -14 17 -20 28 -13 11 7 40 -5 63 -27 24
-21 58 -45 74 -53 17 -7 53 -27 80 -42 103 -60 282 -21 410 88 22 19 54 34 70
33 17 -1 36 7 44 18 9 13 62 11 155 -5 278 -47 346 -31 536 130 113 96 189
126 316 126 155 0 337 127 429 300 50 93 136 164 185 152 25 -7 34 -6 20 0
-34 16 -32 49 2 36 16 -6 42 4 59 21 17 17 46 31 63 31 60 0 203 171 230 274
37 144 82 266 97 261 8 -3 71 52 140 120 161 160 199 249 201 466 1 99 10 171
22 175 13 5 21 80 20 191 -1 172 -2 179 -28 120 -15 -34 -58 -97 -96 -140
-113 -126 -120 -148 -104 -369 16 -231 13 -239 -196 -381 -136 -93 -149 -114
-186 -309 -44 -229 -62 -249 -289 -315 -155 -45 -188 -74 -279 -249 -100 -192
-119 -203 -368 -223 l-202 -15 -111 -121 c-162 -177 -214 -194 -408 -135 -134
41 -230 38 -312 -10 -275 -160 -294 -161 -501 -38 -147 87 -225 97 -387 48
-187 -57 -222 -47 -378 110 -152 153 -154 154 -378 166 -197 10 -234 35 -336
232 -89 170 -105 183 -320 253 -147 48 -213 116 -230 241 -33 237 -54 269
-277 423 -125 86 -142 136 -115 330 25 186 15 221 -112 374 -146 178 -147 191
-36 458 59 141 63 109 -48 408 -51 140 -37 187 103 351 108 127 117 162 90
361 -25 191 1 247 164 351 158 100 178 127 204 264 52 284 76 312 327 389 143
45 184 86 278 284 69 145 123 175 312 175 181 0 254 32 359 156 133 158 187
176 381 125 210 -54 233 -53 365 27 63 38 139 77 169 88 41 15 -76 21 -430 22
-268 1 -482 -5 -476 -14z"/>
<path d="M3220 5973 c39 -14 108 -49 153 -78 125 -80 169 -84 365 -36 208 52
239 43 375 -102 150 -162 149 -161 366 -176 238 -16 256 -29 353 -231 75 -157
114 -188 312 -250 175 -54 210 -97 246 -300 33 -187 58 -225 224 -331 160
-103 174 -135 158 -359 -16 -207 -10 -226 102 -364 37 -47 81 -110 97 -140 27
-53 29 -46 29 120 0 131 -8 185 -30 207 -22 22 -30 77 -30 216 0 141 -7 192
-30 211 -16 14 -30 36 -30 49 0 23 -193 231 -214 231 -28 0 -88 94 -109 168
-67 245 -150 364 -292 416 -36 13 -65 29 -65 36 0 6 -20 13 -45 15 -24 2 -48
13 -51 24 -4 12 -20 21 -35 21 -16 0 -23 12 -17 28 6 15 0 35 -14 43 -15 10
-19 7 -10 -8 8 -13 10 -23 4 -23 -5 0 -43 50 -83 110 -134 202 -280 290 -480
290 -102 0 -197 50 -287 153 l-77 87 -478 -1 c-409 -1 -467 -4 -407 -26z"/>
<path d="M2860 5652 c0 -48 55 -81 90 -52 50 42 36 80 -30 80 -38 0 -60 -10
-60 -28z"/>
<path d="M3260 5652 c0 -40 50 -75 87 -60 60 23 40 88 -27 88 -38 0 -60 -10
-60 -28z"/>
<path d="M3662 5612 c-38 -45 21 -102 76 -73 52 28 47 61 -13 83 -27 10 -50 7
-63 -10z"/>
<path d="M2489 5602 c-42 -41 37 -98 84 -60 45 38 32 78 -24 73 -28 -2 -55 -8
-60 -13z"/>
<path d="M2800 5508 c-1968 -362 -2741 -2620 -1382 -4035 1487 -1547 4090
-492 4090 1657 0 1131 -694 2036 -1782 2324 -191 50 -763 83 -926 54z m711
-58 c1099 -178 1919 -1102 1963 -2212 72 -1794 -1776 -2995 -3384 -2199 -325
162 -386 213 -351 298 14 36 22 69 16 74 -5 6 -21 -17 -35 -50 -35 -86 -47
-81 -239 114 -1596 1616 -206 4338 2030 3975z"/>
<path d="M2924 5209 c-49 -34 -59 -89 -17 -89 15 0 43 18 63 40 47 52 160 52
244 1 141 -86 182 -357 51 -345 -97 10 -165 -67 -165 -185 0 -182 203 -304
381 -231 186 77 150 424 -45 428 l-71 2 3 103 c5 222 -273 395 -444 276z"/>
<path d="M2846 4760 c-363 -147 -483 -346 -314 -522 74 -77 82 -60 17 35 -103
151 -39 263 220 390 208 101 201 104 201 -82 0 -271 86 -340 458 -365 394 -26
552 -71 552 -156 0 -73 -305 -87 -1160 -53 -768 31 -1130 -69 -1130 -313 0
-221 213 -297 624 -225 347 61 1139 165 1539 202 353 32 549 -106 429 -303
-128 -210 -664 -227 -1040 -33 -99 51 -102 52 -102 27 0 -9 65 -49 145 -89
510 -251 1115 -137 1115 211 0 329 -355 354 -1950 134 -500 -69 -573 -65 -628
38 -70 131 478 272 912 235 763 -66 1324 -16 1358 121 48 192 -190 296 -650
284 -338 -8 -432 74 -417 369 10 179 17 175 -179 95z"/>
<path d="M2112 3115 c-28 -38 -70 -122 -92 -186 -23 -65 -48 -125 -56 -133 -8
-8 -11 -56 -7 -107 10 -125 51 -138 134 -42 58 67 65 70 75 33 14 -53 38 -51
110 10 57 48 60 48 70 10 16 -61 78 -48 141 31 31 40 53 76 47 82 -5 5 -29
-18 -53 -52 -43 -59 -101 -83 -101 -40 0 12 28 47 63 79 40 36 58 68 50 88
-22 58 -71 33 -152 -77 -44 -59 -89 -114 -101 -121 -32 -20 -23 113 12 170 17
28 26 34 19 13 -7 -23 -2 -33 13 -28 32 10 39 39 18 73 -30 47 -75 10 -142
-116 -36 -66 -81 -135 -102 -154 -76 -69 -50 110 34 232 108 158 138 238 102
275 -25 25 -36 20 -82 -40z m37 -70 c-38 -91 -82 -142 -50 -59 28 74 60 134
72 134 5 0 -5 -34 -22 -75z"/>
<path d="M1654 3062 c-39 -43 -81 -98 -94 -122 -42 -79 -44 -26 -2 61 39 80
40 119 3 119 -52 0 -194 -449 -157 -495 27 -33 56 -13 56 38 0 58 113 263 194
352 80 88 81 60 4 -145 -57 -152 -103 -207 -146 -172 -28 24 -31 23 -21 -4 53
-137 213 24 268 270 39 176 -1 213 -105 98z"/>
<path d="M2909 3071 c-27 -27 -49 -68 -49 -90 0 -57 10 -52 59 32 75 127 71
53 -9 -144 -57 -140 -71 -196 -54 -213 16 -16 29 -7 47 36 14 32 46 92 71 133
50 81 57 104 26 85 -13 -8 -13 5 0 40 51 134 -4 208 -91 121z"/>
<path d="M4317 3050 c-32 -55 -54 -70 -100 -70 -36 0 -54 -8 -46 -21 7 -11 30
-15 51 -8 44 14 46 -1 16 -88 -25 -71 -98 -126 -98 -75 0 16 9 35 20 42 25 15
27 90 2 90 -36 0 -70 -66 -65 -127 6 -80 32 -107 72 -74 27 23 29 18 19 -33
-21 -108 37 -122 114 -27 60 75 67 79 100 49 41 -37 103 -13 138 52 12 22 37
41 56 42 21 1 24 5 9 11 -14 6 -25 37 -25 69 0 97 -52 95 -139 -4 -43 -49
-105 -119 -140 -158 l-63 -70 13 69 c27 136 84 241 133 243 34 2 37 5 11 12
-43 11 -44 27 -6 77 38 50 38 69 0 69 -17 0 -49 -31 -72 -70z m223 -180 c0
-31 -11 -50 -30 -50 -35 0 -37 10 -9 61 28 52 39 49 39 -11z m-45 -67 c20 -12
16 -25 -15 -53 -47 -43 -69 -30 -50 28 14 45 26 50 65 25z"/>
<path d="M3074 3004 c-74 -78 -68 -105 7 -33 66 64 65 51 -11 -100 -53 -103
-63 -161 -31 -180 25 -16 87 103 69 133 -8 13 -5 17 7 9 11 -7 45 19 75 59 74
96 79 78 20 -68 -79 -196 -51 -321 59 -260 29 17 35 16 25 -6 -6 -15 -37 -89
-68 -163 -67 -161 -169 -288 -182 -226 -5 25 10 52 44 76 62 46 70 115 13 115
-71 0 -149 -128 -118 -192 37 -76 65 -79 125 -14 l52 56 0 -74 c0 -119 76
-127 150 -17 37 55 41 57 54 20 23 -61 66 -47 143 46 70 84 116 95 75 18 -58
-108 -1 -162 83 -78 42 42 155 64 155 30 0 -28 66 -15 90 18 21 30 26 27 37
-20 16 -61 37 -66 82 -21 45 45 96 148 73 148 -11 0 -25 -17 -31 -38 -7 -21
-27 -50 -45 -65 -35 -29 -33 22 4 110 13 30 8 35 -22 29 -21 -4 -48 6 -61 23
-28 37 -73 5 -119 -83 -32 -61 -81 -79 -59 -21 23 57 22 70 -3 79 -13 5 -37
-21 -52 -58 -15 -36 -44 -79 -65 -96 -34 -28 -35 -27 -20 10 36 90 36 110 1
110 -22 0 -30 10 -23 30 7 18 0 30 -18 30 -17 0 -39 -25 -51 -55 -22 -59 -94
-145 -121 -145 -37 0 -13 63 43 113 71 64 77 107 15 107 -34 0 -69 -34 -135
-135 -155 -233 -181 -96 -28 144 87 136 109 216 66 242 -12 7 -30 5 -40 -5
-22 -22 -138 -9 -138 16 0 9 27 86 61 171 80 202 49 265 -70 139 -77 -82 -89
-79 -38 8 64 107 7 153 -79 64z m256 -544 c-47 -104 -62 -90 -18 18 18 46 38
79 44 73 5 -6 -6 -47 -26 -91z m582 -237 c-39 -39 -44 -2 -8 63 22 41 25 41
32 7 4 -21 -7 -52 -24 -70z"/>
<path d="M3385 2881 c-71 -85 -82 -142 -35 -181 33 -28 122 16 143 71 17 43
47 35 47 -13 0 -74 50 -28 52 49 3 82 -5 88 -46 38 -27 -33 -28 -32 -20 7 25
119 -53 135 -141 29z m107 7 c-7 -17 -12 -40 -12 -50 0 -10 -9 -18 -20 -18
-22 0 -27 66 -7 87 26 25 51 13 39 -19z m-57 -85 c20 -12 16 -25 -15 -53 -48
-43 -63 -35 -47 26 13 48 23 52 62 27z"/>
<path d="M3642 2887 c-23 -29 -42 -62 -42 -74 0 -11 13 -3 30 18 27 36 28 35
17 -26 -13 -69 18 -91 43 -30 49 124 18 197 -48 112z"/>
<path d="M4040 2890 c-11 -29 -20 -57 -20 -63 0 -29 -86 -127 -111 -127 -47 0
-34 38 34 100 40 36 58 68 50 88 -18 48 -67 39 -107 -19 -71 -102 -131 -163
-116 -119 37 113 37 154 -1 147 -50 -10 -66 -192 -18 -210 18 -7 42 3 57 23
24 34 26 33 37 -7 15 -59 83 -55 124 8 18 27 40 46 50 40 23 -15 67 43 52 68
-7 11 -3 38 8 59 14 26 14 44 1 52 -11 7 -29 -11 -40 -40z"/>
<path d="M2566 2895 c-21 -33 -21 -56 -3 -108 11 -34 4 -51 -34 -76 -61 -40
-64 -104 -5 -122 49 -16 116 48 116 111 0 19 23 50 50 68 28 18 50 42 50 53 0
11 -23 5 -52 -14 -61 -40 -96 -9 -78 68 12 48 -17 61 -44 20z"/>
<path d="M4640 2890 c-18 -21 -19 -45 -4 -88 19 -52 15 -63 -27 -91 -61 -40
-64 -104 -5 -122 50 -16 122 55 111 109 -3 18 18 47 49 67 31 19 56 45 56 57
0 14 -20 9 -53 -12 -61 -40 -95 -12 -77 65 12 51 -13 59 -50 15z"/>
<path d="M1763 2849 c-49 -107 -13 -191 53 -125 35 35 30 66 -6 36 -37 -31
-37 -5 0 60 36 63 37 80 3 80 -15 0 -37 -23 -50 -51z"/>
<path d="M1874 2839 c-35 -50 -21 -123 21 -115 32 6 52 129 24 147 -9 5 -29
-9 -45 -32z"/>
<path d="M2928 2500 c-42 -63 -66 -81 -116 -83 l-62 -2 63 -13 c63 -12 64 -13
37 -75 -51 -122 -155 -126 -124 -6 8 31 2 40 -23 34 -25 -5 -32 -25 -28 -85 3
-56 -7 -90 -38 -123 -47 -51 -38 -107 18 -107 50 0 85 39 85 93 0 25 16 54 35
65 32 16 35 10 28 -57 -10 -108 30 -124 101 -40 68 82 74 131 6 54 -84 -95
-85 -42 -5 150 27 64 52 95 76 95 20 0 42 9 49 20 7 11 -7 20 -30 20 l-43 0
41 57 c38 54 38 83 -1 83 -9 0 -40 -36 -69 -80z"/>
<path d="M2212 2464 c-62 -122 -119 -317 -104 -356 17 -43 47 -18 62 51 9 44
35 69 102 102 144 70 243 259 154 293 -23 9 -55 -13 -109 -75 -55 -63 -72 -75
-64 -43 7 25 20 50 29 55 10 6 18 24 18 40 0 58 -40 27 -88 -67z m188 25 c0
-26 -48 -102 -96 -154 -106 -113 -95 -37 14 100 48 60 82 82 82 54z"/>
<path d="M3781 2412 c-26 -67 -26 -72 -2 -72 34 0 67 82 44 105 -15 15 -28 5
-42 -33z"/>
<path d="M2465 2346 c-34 -13 -85 -113 -85 -165 0 -55 54 -53 101 4 35 43 36
43 27 4 -20 -80 41 -97 100 -28 28 34 52 73 52 86 0 12 -23 -4 -51 -37 -54
-63 -58 -53 -27 70 5 17 -5 30 -22 30 -16 0 -39 10 -50 23 -11 12 -31 18 -45
13z m7 -123 c-39 -39 -44 -2 -8 63 22 41 25 41 32 7 4 -21 -7 -52 -24 -70z"/>
<path d="M2728 1808 c7 -17 12 -40 12 -50 0 -43 50 -13 53 32 2 38 -7 50 -37
50 -29 0 -37 -9 -28 -32z"/>
<path d="M2841 1802 c-29 -54 -28 -57 26 -57 37 0 46 9 38 38 -15 56 -40 63
-64 19z"/>
<path d="M2931 1822 c-17 -28 10 -82 41 -82 15 0 28 10 28 21 0 12 -9 16 -20
9 -11 -7 -20 2 -20 20 0 18 9 27 20 20 11 -7 20 -3 20 9 0 26 -53 28 -69 3z"/>
<path d="M3047 1806 c-7 -20 -16 -42 -20 -48 -3 -7 15 -13 41 -13 36 0 45 9
37 38 -14 54 -43 66 -58 23z"/>
<path d="M3140 1790 c0 -27 10 -50 21 -50 12 0 16 9 9 20 -7 11 -4 20 7 20 11
0 24 -11 30 -25 5 -14 10 2 10 35 0 33 -5 49 -10 35 -6 -14 -19 -25 -30 -25
-11 0 -14 9 -7 20 7 11 3 20 -9 20 -11 0 -21 -22 -21 -50z"/>
<path d="M3260 1789 c0 -66 67 -60 76 6 5 34 -3 45 -35 45 -31 0 -41 -13 -41
-51z"/>
<path d="M3380 1822 c0 -10 -5 -32 -11 -48 -8 -21 3 -29 38 -29 45 0 48 4 28
48 -21 46 -55 64 -55 29z"/>
<path d="M1921 1541 c-16 -10 -23 -37 -17 -68 8 -40 1 -52 -30 -57 -60 -9 -88
-65 -54 -106 36 -43 165 -30 225 23 38 34 41 34 29 2 -13 -37 15 -49 36 -15
22 36 28 100 9 100 -11 0 -19 -10 -19 -21 0 -12 -8 -17 -17 -11 -10 6 -34 -7
-53 -28 -41 -45 -164 -74 -193 -45 -29 29 35 85 98 85 41 0 48 5 29 24 -29 29
-32 96 -5 96 10 0 28 -16 39 -35 10 -19 25 -29 33 -21 33 33 -67 103 -110 77z"/>
<path d="M2413 1500 c-28 -33 -60 -60 -71 -60 -11 0 -52 -28 -91 -62 -68 -60
-90 -59 -52 1 24 39 4 69 -28 42 -81 -67 52 -151 146 -93 10 6 17 -3 16 -21
-2 -18 7 -36 19 -41 14 -5 19 11 13 42 -7 37 9 67 63 121 40 40 72 81 72 90 0
45 -41 36 -87 -19z"/>
<path d="M3337 1501 c-24 -34 -54 -61 -66 -61 -12 0 -55 -28 -96 -61 -73 -60
-94 -60 -56 0 24 39 4 69 -28 42 -82 -68 52 -151 148 -91 12 7 21 -6 21 -29 0
-22 8 -41 17 -41 10 0 13 23 8 50 -8 39 7 65 63 117 73 67 88 101 53 122 -10
7 -39 -15 -64 -48z"/>
<path d="M4277 1501 c-24 -34 -54 -61 -66 -61 -12 0 -57 -29 -100 -65 -61 -50
-75 -55 -63 -25 9 22 17 49 19 60 2 11 11 31 20 45 26 42 -21 28 -85 -27 -48
-40 -62 -44 -62 -20 0 62 -36 31 -44 -38 -10 -86 -3 -87 66 -5 30 36 61 58 69
50 8 -8 5 -26 -7 -40 -46 -55 79 -92 155 -46 12 8 21 -4 21 -28 0 -22 8 -41
17 -41 10 0 13 23 8 50 -8 39 7 65 63 117 73 67 88 101 53 122 -10 7 -39 -15
-64 -48z"/>
<path d="M2624 1477 c-47 -86 -133 -182 -114 -127 8 22 18 54 24 70 5 17 -18
-1 -52 -40 -39 -45 -61 -59 -61 -39 -1 17 10 43 24 57 20 22 19 25 -5 18 -16
-5 -33 -33 -36 -63 -7 -57 13 -68 52 -29 13 13 24 15 24 4 0 -11 38 -20 85
-21 47 -1 112 -3 145 -5 70 -4 159 9 189 27 11 7 21 5 21 -5 0 -24 97 -25 111
-2 52 84 22 114 -42 43 l-48 -55 12 65 c16 85 -27 87 -120 5 -38 -33 -81 -60
-96 -59 -15 0 0 23 33 50 l60 49 -59 0 c-37 0 -80 -20 -115 -54 -39 -37 -56
-45 -56 -23 0 16 27 55 60 87 33 32 60 69 60 84 0 49 -62 26 -96 -37z"/>
<path d="M4508 1468 c-45 -108 -24 -124 27 -19 25 50 35 91 24 91 -12 0 -35
-32 -51 -72z"/>
<path d="M3586 1455 c-82 -128 -71 -151 74 -144 141 6 134 3 149 43 11 29 6
28 -32 -5 -44 -39 -44 -37 -7 56 22 54 -20 41 -50 -15 -15 -27 -34 -50 -43
-50 -24 0 -21 28 7 56 50 50 -15 21 -69 -31 -47 -45 -55 -48 -43 -15 8 22 24
46 35 53 26 17 35 77 12 77 -9 0 -24 -11 -33 -25z"/>
<path d="M3355 1417 c-36 -20 -49 -117 -16 -117 41 0 121 40 121 61 0 12 -9
16 -20 9 -11 -7 -20 1 -20 18 0 41 -24 52 -65 29z"/>
<path d="M4286 1391 c-56 -48 -44 -117 14 -81 18 11 18 19 -3 33 -22 14 -22
20 3 37 43 28 69 25 44 -6 -34 -40 6 -90 49 -63 19 12 37 33 39 46 3 13 0 15
-5 4 -15 -29 -49 -26 -46 4 12 88 -15 96 -95 26z"/>
<path d="M4052 5505 c-19 -19 -14 -81 8 -95 27 -16 104 28 95 54 -9 27 -87 58
-103 41z"/>
<path d="M2134 5486 c-46 -12 -36 -73 14 -83 38 -7 71 26 72 72 0 25 -21 28
-86 11z"/>
<path d="M1792 5310 c-41 -31 -31 -90 15 -90 51 0 84 58 51 90 -24 23 -34 23
-66 0z"/>
<path d="M4384 5295 c7 -50 68 -71 103 -36 17 18 13 31 -16 52 -58 43 -95 36
-87 -16z"/>
<path d="M4723 5093 c-34 -41 -6 -93 49 -93 57 0 62 41 11 87 -32 29 -41 30
-60 6z"/>
<path d="M1463 5068 c-34 -39 -14 -93 32 -84 22 4 35 25 35 55 0 57 -30 71
-67 29z"/>
<path d="M4993 4827 c-28 -28 -11 -85 29 -98 64 -20 93 22 48 71 -38 42 -55
48 -77 27z"/>
<path d="M1183 4789 c-28 -32 -18 -89 15 -89 30 0 85 62 76 87 -11 35 -61 36
-91 2z"/>
<path d="M5233 4507 c-27 -28 -12 -85 27 -97 63 -20 83 6 47 61 -32 50 -50 59
-74 36z"/>
<path d="M947 4450 c-26 -57 -7 -79 54 -60 28 9 39 27 35 57 -9 61 -62 63 -89
3z"/>
<path d="M5425 4157 c-36 -36 -31 -72 12 -96 62 -33 85 21 38 86 -20 27 -31
29 -50 10z"/>
<path d="M781 4123 c-33 -62 -25 -86 24 -79 32 4 45 19 45 54 0 62 -41 76 -69
25z"/>
<path d="M5539 3758 c-20 -38 -18 -49 12 -71 45 -33 75 -8 66 54 -9 63 -49 71
-78 17z"/>
<path d="M660 3729 c-26 -68 2 -109 49 -70 39 33 39 69 1 101 -24 20 -33 15
-50 -31z"/>
<path d="M5980 3451 c0 -17 -22 -81 -50 -143 -62 -141 -63 -199 -2 -344 26
-63 52 -132 58 -154 5 -22 10 120 12 315 1 195 -2 355 -8 355 -5 0 -10 -13
-10 -29z"/>
<path d="M5612 3389 c-40 -39 -40 -57 -3 -88 39 -32 71 -10 71 49 0 62 -29 78
-68 39z"/>
<path d="M599 3375 c-28 -92 3 -141 56 -89 35 36 20 94 -24 94 -17 0 -32 -2
-32 -5z"/>
<path d="M5605 2977 c-29 -29 3 -97 46 -97 19 0 29 21 29 60 0 62 -33 79 -75
37z"/>
<path d="M598 2971 c-14 -68 -3 -101 33 -101 52 0 56 96 4 106 -19 4 -36 2
-37 -5z"/>
<path d="M5546 2598 c-17 -17 -18 -35 -4 -61 26 -49 78 -47 78 3 0 22 0 47 1
55 2 26 -51 27 -75 3z"/>
<path d="M653 2585 c-21 -34 11 -107 45 -101 43 9 43 103 -1 112 -18 3 -38 -2
-44 -11z"/>
<path d="M5426 2218 c-28 -28 -10 -98 26 -98 32 0 75 73 58 100 -16 26 -57 25
-84 -2z"/>
<path d="M770 2200 c-17 -27 26 -100 58 -100 36 0 54 70 26 98 -27 27 -68 28
-84 2z"/>
<path d="M5265 1887 c-34 -14 -32 -107 3 -107 39 0 79 54 65 90 -12 31 -25 34
-68 17z"/>
<path d="M950 1860 c-17 -28 26 -100 61 -100 40 0 38 92 -3 108 -41 16 -44 15
-58 -8z"/>
<path d="M5013 1547 c-21 -22 -15 -83 10 -99 25 -15 100 71 84 96 -12 19 -75
21 -94 3z"/>
<path d="M1180 1514 c0 -33 41 -74 74 -74 14 0 26 22 26 50 0 40 -10 50 -50
50 -28 0 -50 -12 -50 -26z"/>
<path d="M1463 1254 c-25 -30 44 -104 78 -83 30 18 22 84 -13 97 -41 16 -40
16 -65 -14z"/>
<path d="M4732 1248 c-14 -36 1 -68 31 -68 26 0 77 51 77 79 0 34 -94 24 -108
-11z"/>
<path d="M1787 1009 c-16 -41 54 -93 88 -65 17 14 18 31 4 58 -25 46 -76 50
-92 7z"/>
<path d="M4407 1010 c-19 -50 21 -78 72 -50 52 28 44 68 -16 76 -26 4 -48 -6
-56 -26z"/>
<path d="M4069 838 c-17 -55 10 -78 66 -57 55 22 58 51 6 78 -52 28 -56 27
-72 -21z"/>
<path d="M2133 847 c-28 -29 -11 -63 39 -76 64 -16 76 -6 58 47 -12 40 -69 57
-97 29z"/>
<path d="M2507 711 c-15 -40 -11 -44 60 -62 51 -13 56 -10 50 33 -8 58 -90 79
-110 29z"/>
<path d="M3680 710 c-17 -21 -20 -38 -6 -52 26 -26 132 14 121 47 -12 38 -85
41 -115 5z"/>
<path d="M2903 662 c-42 -27 -18 -67 44 -74 47 -5 54 1 49 38 -7 47 -50 64
-93 36z"/>
<path d="M3299 649 c-39 -47 2 -75 70 -49 46 17 51 26 31 50 -32 38 -68 38
-101 -1z"/>
</g>
</svg>
